# AST/ASF file generated using VICON BodyLanguage
# -----------------------------------------------
:version 1.10
:name VICON
:units
  mass 1.0
  length 0.45
  angle deg
:documentation
   .ast/.asf automatically generated from VICON data using
   VICON BodyBuilder and BodyLanguage model FoxedUp or BRILLIANT.MOD
:root
   order TX TY TZ RX RY RZ
   axis XYZ
   position 0 0 0  
   orientation 0 0 0 
:bonedata
  begin
     id 1 
     name lhipjoint
     direction 0.602128 -0.715006 0.355257 
     length 2.21237 
     axis 0 0 0  XYZ
  end
  begin
     id 2 
     name lfemur
     direction 0.34202 -0.939693 0  
     length 6.71649  
     axis 0 0 20  XYZ
    dof rx ry rz
    limits (-160.0 20.0)
           (-70.0 70.0)
           (-60.0 70.0)
  end
  begin
     id 3 
     name ltibia
     direction 0.34202 -0.939693 0   
     length 6.97123   
     axis 0 0 20   XYZ
    dof rx
    limits (-10.0 170.0)
  end
  begin
     id 4 
     name lfoot
     direction 0.0655697 -0.180151 0.981451   
     length 1.80924   
     axis -90 7.62852e-016 20   XYZ
    dof rx rz
    limits (-45.0 90.0)
           (-70.0 20.0)
  end
  begin
     id 5 
     name ltoes
     direction 1.53545e-011 -4.21827e-011 1   
     length 0.916331   
     axis -90 7.62852e-016 20   XYZ
    dof rx
    limits (-90.0 20.0)
  end
  begin
     id 6 
     name rhipjoint
     direction -0.625414 -0.698792 0.347201   
     length 2.2637  
     axis 0 0 0  XYZ 
  end
  begin
     id 7 
     name rfemur
     direction -0.34202 -0.939693 0   
     length 7.07595   
     axis 0 0 -20   XYZ
    dof rx ry rz
    limits (-160.0 20.0)
           (-70.0 70.0)
           (-70.0 60.0)
  end
  begin
     id 8 
     name rtibia
     direction -0.34202 -0.939693 0   
     length 7.22924   
     axis 0 0 -20   XYZ
    dof rx
    limits (-10.0 170.0)
 end
 begin
     id 9 
     name rfoot
     direction -0.0766747 -0.210662 0.974547   
     length 1.98482  
     axis -90 -7.62852e-016 -20   XYZ
    dof rx rz
    limits (-45.0 90.0)
           (-20.0 70.0)
  end
  begin
     id 10 
     name rtoes
     direction -1.53532e-011 -4.21867e-011 1   
     length 0.999842   
     axis -90 -7.62852e-016 -20   XYZ
    dof rx
    limits (-90.0 20.0)
  end
  begin
     id 11 
     name lowerback
     direction -0.0224668 0.997354 -0.0691422   
     length 2.09945   
     axis 0 0 0   XYZ
    dof rx ry rz
    limits (-20.0 45.0)
           (-30.0 30.0)
           (-30.0 30.0)
  end
  begin
     id 12 
     name upperback
     direction 0.0134698 0.998451 -0.0539888   
     length 2.09758   
     axis 0 0 0   XYZ
    dof rx ry rz
    limits (-20.0 45.0)
           (-30.0 30.0)
           (-30.0 30.0)
  end
  begin
     id 13 
     name thorax
     direction 0.0241905 0.99948 -0.0213333   
     length 2.10428   
     axis 0 0 0   XYZ
    dof rx ry rz
    limits (-20.0 45.0)
           (-30.0 30.0)
           (-30.0 30.0)
  end
  begin
     id 14 
     name lowerneck
     direction -0.00866847 0.995978 0.0891737   
     length 1.3959   
     axis 0 0 0   XYZ
    dof rx ry rz
    limits (-20.0 45.0)
           (-30.0 30.0)
           (-30.0 30.0)
  end
  begin
     id 15 
     name upperneck
     direction 0.0680679 0.992203 0.104404   
     length 1.39452   
     axis 0 0 0   XYZ
    dof rx ry rz
    limits (-20.0 45.0)
           (-30.0 30.0)
           (-30.0 30.0)
  end
  begin
     id 16
     name head
     direction 0.0242216 0.999358 0.0264054  
     length 1.40433  
     axis 0 0 0   XYZ
    dof rx ry rz
    limits (-20.0 45.0)
           (-30.0 30.0)
           (-30.0 30.0)
  end
  begin
     id 17 
     name lclavicle
     direction 0.929368 0.362991 -0.0671771  
     length 3.04887  
     axis 0 0 0   XYZ
    dof ry rz
    limits (-20.0 10.0)
           (0.0 20.0)
  end
  begin
     id 18 
     name lhumerus
     direction 1 -4.48967e-011 -7.13741e-028   
     length 4.77195   
     axis -180 -30 -90   XYZ
    dof rx ry rz
    limits (-60.0 90.0)
           (-90.0 90.0)
           (-90.0 90.0)
  end
  begin
     id 19
     name lradius
     direction 1 -4.48977e-011 3.60404e-027   
     length 2.98444   
     axis -180 -30 -90   XYZ
    dof rx
    limits (-10.0 170.0)
  end
  begin
     id 20
     name lwrist
     direction 1 -4.48997e-011 7.54877e-027   
     length 1.49222   
     axis -7.18178e-015 90 90   XYZ
    dof ry
    limits (-180.0 0.0)
 end
  begin
     id 21 
     name lhand
     direction 1 -4.489e-011 1.51105e-026   
     length 0.992285   
     axis -9.63605e-015 90 90   XYZ
    dof rx rz
    limits (-90.0 90.0)
           (-45.0 45.0)
  end
  begin
     id 22 
     name lfingers
     direction 1 -4.48998e-011 3.01948e-026   
     length 0.800006   
     axis -1.92718e-014 90 90   XYZ
    dof rx
    limits (0.0 90.0)
  end
  begin
     id 23
     name lthumb
     direction 0.707107 -6.34881e-011 0.707107   
     length 1.14865   
     axis -90 45 -3.53137e-014   XYZ
    dof rx rz
    limits (-45.0 45.0)
           (-45.0 45.0)
  end
  begin
     id 24 
     name rclavicle
     direction -0.945672 0.324529 0.0196374   
     length 3.4236  
     axis 0 0 0   XYZ 
    dof ry rz
    limits (-10.0 20.0)
           (-20.0 0.0)
  end
  begin
     id 25 
     name rhumerus
     direction -1 -4.4896e-011 1.02757e-029  
     length 4.62052   
     axis -180 30 90   XYZ
    dof rx ry rz
    limits (-90.0 60.0)
           (-90.0 90.0)
           (-90.0 90.0)
  end
  begin
     id 26 
     name rradius
     direction -1 -4.48982e-011 3.85962e-027   
     length 2.95332   
     axis -180 30 90   XYZ
    dof rx
    limits (-10.0 170.0)
  end
  begin
     id 27 
     name rwrist
     direction -1 -4.48961e-011 7.55118e-027   
     length 1.47666   
     axis -7.18178e-015 -90 -90   XYZ
    dof ry
    limits (-180.0 0.0)
  end
  begin
     id 28
     name rhand
     direction -1 -4.48984e-011 1.50994e-026   
     length 0.990956   
     axis -9.63605e-015 -90 -90   XYZ
    dof rx rz
    limits (-90.0 90.0)
           (-45.0 45.0)
  end
  begin
     id 29
     name rfingers
     direction -1 -4.4892e-011 3.02158e-026   
     length 0.798934   
     axis -1.92718e-014 -90 -90   XYZ
    dof rx
    limits (0.0 90.0)
  end
  begin
     id 30
     name rthumb
     direction -0.707107 -6.34916e-011 0.707107   
     length 1.14711   
     axis -90 -45 3.53137e-014   XYZ
    dof rx rz
    limits (-45.0 45.0)
           (-45.0 45.0)
  end
:hierarchy
  begin
    root lhipjoint rhipjoint lowerback
    lhipjoint lfemur
    lfemur ltibia
    ltibia lfoot
    lfoot ltoes
    rhipjoint rfemur
    rfemur rtibia
    rtibia rfoot
    rfoot rtoes
    lowerback upperback
    upperback thorax
    thorax lowerneck lclavicle rclavicle
    lowerneck upperneck
    upperneck head
    lclavicle lhumerus
    lhumerus lradius
    lradius lwrist
    lwrist lhand lthumb
    lhand lfingers
    rclavicle rhumerus
    rhumerus rradius
    rradius rwrist
    rwrist rhand rthumb
    rhand rfingers
  end

#!OML:ASF H:\ManfredObstacles\Project 1\Capture day 1\Session 1\Male.ASF
:FULLY-SPECIFIED
:DEGREES
305
root 16.1339 16.1666 6.60791 164.029 85.291 156.396
lowerback -11.6821 -2.76034 -6.10303
upperback 1.97571 -2.72795 -0.433379
thorax 8.97462 -1.61265 2.44443
lowerneck -1.30038 -3.0604 -5.09859
upperneck -1.63928 -3.84295 12.1642
head 0.0845833 -1.86486 4.94091
rclavicle 3.3694e-014 9.14409e-015
rhumerus -44.7472 -26.8204 -68.5071
rradius 24.8999
rwrist 36.1176
rhand 1.06956 -4.71611
rfingers 7.12502
rthumb 26.6144 -32.8656
lclavicle 3.3694e-014 9.14409e-015
lhumerus -24.5055 9.81224 83.6427
lradius 22.1157
lwrist -24.0739
lhand -9.77819 8.3884
lfingers 7.12502
lthumb 16.1972 37.7317
rfemur -31.0517 -2.08223 15.4465
rtibia 22.8823
rfoot -4.50339 5.83461
rtoes 12.62
lfemur -3.32174 0.69628 -23.2163
ltibia 14.7125
lfoot -3.91069 -22.0942
ltoes 10.4264
306
root 16.296 16.1673 6.63596 168.288 85.433 160.473
lowerback -11.8927 -2.8359 -5.78881
upperback 1.75515 -2.8974 -0.127226
thorax 8.86935 -1.68211 2.55981
lowerneck -1.51375 -2.98334 -5.2102
upperneck -1.51146 -3.75095 11.9476
head 0.152975 -1.81171 4.88026
rclavicle -2.83517e-014 -3.18055e-015
rhumerus -45.1878 -27.5353 -67.2426
rradius 24.5488
rwrist 37.3323
rhand 1.10222 -4.5002
rfingers 7.12502
rthumb 26.6457 -32.645
lclavicle -2.83517e-014 -3.18055e-015
lhumerus -25.3462 10.7859 83.7434
lradius 22.0586
lwrist -24.2292
lhand -9.88372 8.39663
lfingers 7.12502
lthumb 16.0956 37.7482
rfemur -31.2588 -2.53747 16.3681
rtibia 23.3667
rfoot -2.75869 5.43043
rtoes 6.84751
lfemur -2.24266 -0.0107701 -22.6792
ltibia 13.471
lfoot -3.80291 -21.2986
ltoes 11.2613
307
root 16.4529 16.1695 6.66098 172.414 85.5792 164.384
lowerback -12.0654 -2.9141 -5.43426
upperback 1.49384 -3.07564 0.150192
thorax 8.69495 -1.75043 2.62187
lowerneck -1.4871 -2.82174 -5.31299
upperneck -1.75336 -3.51386 11.8266
head 0.0459535 -1.69964 4.86334
rclavicle 2.45996e-014 1.66979e-014
rhumerus -45.3071 -27.7677 -66.3636
rradius 24.0026
rwrist 37.9065
rhand 0.973596 -4.3942
rfingers 7.12502
rthumb 26.5226 -32.5576
lclavicle 2.45996e-014 1.66979e-014
lhumerus -26.3084 11.9083 83.6995
lradius 21.9333
lwrist -24.6978
lhand -9.8247 8.18934
lfingers 7.12502
lthumb 16.1525 37.5363
rfemur -31.1459 -1.56802 16.5015
rtibia 23.9039
rfoot -1.75283 4.65278
rtoes 14.5047
lfemur -1.181 -0.551903 -22.2138
ltibia 12.1545
lfoot -3.84554 -20.6052
ltoes 11.0289
308
root 16.6065 16.1799 6.68402 178.044 85.7688 169.678
lowerback -12.4107 -2.93798 -4.97252
upperback 1.25056 -3.18906 0.467277
thorax 8.6294 -1.78569 2.67114
lowerneck -1.48927 -2.75303 -5.5087
upperneck -1.89926 -3.40984 11.7573
head -0.00871719 -1.65064 4.88083
rclavicle -5.59082e-016 -1.45113e-014
rhumerus -45.2371 -27.6727 -65.8209
rradius 23.7152
rwrist 37.8033
rhand 0.976572 -4.49702
rfingers 7.12502
rthumb 26.5254 -32.66
lclavicle -5.59082e-016 -1.45113e-014
lhumerus -27.2798 13.6918 83.4987
lradius 21.6719
lwrist -25.9764
lhand -9.82566 8.09728
lfingers 7.12502
lthumb 16.1515 37.4443
rfemur -31.3425 -1.65086 17.2671
rtibia 24.5346
rfoot -1.60197 5.54554
rtoes 14.923
lfemur -0.370955 -1.00864 -21.6854
ltibia 11.0143
lfoot -4.06143 -19.9438
ltoes 9.8909
309
root 16.7559 16.1885 6.70581 183.569 85.964 174.87
lowerback -12.7776 -2.85869 -4.44804
upperback 1.0721 -3.16107 0.641596
thorax 8.62155 -1.74765 2.55857
lowerneck -1.44209 -2.78737 -5.43065
upperneck -2.29495 -3.41875 11.826
head -0.144889 -1.6626 4.89484
rclavicle -1.4064e-014 -9.74045e-015
rhumerus -45.4774 -28.5155 -64.9163
rradius 23.6158
rwrist 38.3661
rhand 1.01837 -4.50546
rfingers 7.12502
rthumb 26.5654 -32.6624
lclavicle -1.4064e-014 -9.74045e-015
lhumerus -28.1307 14.9873 83.2312
lradius 21.3065
lwrist -26.9035
lhand -9.80797 8.32006
lfingers 7.12502
lthumb 16.1686 37.6657
rfemur -31.6182 -2.02161 18.0956
rtibia 25.2451
rfoot -2.11597 6.48776
rtoes 13.1557
lfemur 0.439792 -0.816764 -21.2468
ltibia 9.90075
lfoot -3.82793 -19.6816
ltoes 8.92853
310
root 16.8972 16.1986 6.72302 189.072 86.1989 180.21
lowerback -12.879 -2.74595 -3.88794
upperback 0.941664 -3.10238 0.742795
thorax 8.50558 -1.69162 2.36314
lowerneck -1.5966 -2.80878 -5.05309
upperneck -2.51569 -3.42511 11.685
head -0.198186 -1.66628 4.76533
rclavicle -2.35808e-014 4.27387e-015
rhumerus -45.6121 -29.1955 -64.3074
rradius 23.5944
rwrist 38.5645
rhand 0.81025 -4.66179
rfingers 7.12502
rthumb 26.3662 -32.8487
lclavicle -2.35808e-014 4.27387e-015
lhumerus -28.9655 15.8331 82.9795
lradius 20.9317
lwrist -27.2113
lhand -9.68068 8.59686
lfingers 7.12502
lthumb 16.2911 37.9325
rfemur -31.6405 -2.20824 18.6913
rtibia 25.9502
rfoot -2.60787 7.0697
rtoes 15.3752
lfemur 1.41171 -0.548133 -20.866
ltibia 8.85558
lfoot -3.50293 -19.3168
ltoes 8.08206
311
root 17.027 16.2101 6.74185 194.828 86.3701 185.564
lowerback -13.0614 -2.77215 -3.55363
upperback 0.69427 -3.20508 1.03318
thorax 8.34703 -1.72618 2.46276
lowerneck -1.42208 -2.76883 -5.23951
upperneck -3.00206 -3.32708 11.81
head -0.390937 -1.62968 4.85985
rclavicle -4.35463e-014 -2.28602e-015
rhumerus -45.3752 -28.9979 -64.0278
rradius 23.6961
rwrist 38.2586
rhand 0.806605 -4.66663
rfingers 7.12502
rthumb 26.3627 -32.8541
lclavicle -4.35463e-014 -2.28602e-015
lhumerus -29.9255 17.1003 82.8026
lradius 20.4313
lwrist -27.4845
lhand -9.77229 8.5831
lfingers 7.12502
lthumb 16.2029 37.926
rfemur -31.9798 -2.87125 19.454
rtibia 26.5807
rfoot -2.96953 8.06757
rtoes 16.023
lfemur 2.05663 -0.315742 -20.4622
ltibia 7.79631
lfoot -2.94838 -18.9738
ltoes 7.42522
312
root 17.1558 16.2219 6.76629 196.257 86.4918 186.718
lowerback -13.1404 -2.77306 -3.56575
upperback 0.5316 -3.21205 1.18478
thorax 8.22647 -1.72851 2.631
lowerneck -1.37925 -2.86984 -5.20686
upperneck -3.58113 -3.40123 11.9987
head -0.57672 -1.67694 4.93094
rclavicle -1.25887e-014 9.93923e-017
rhumerus -45.194 -28.9234 -63.8318
rradius 23.9674
rwrist 38.0531
rhand 1.08623 -4.33051
rfingers 7.12502
rthumb 26.6304 -32.4776
lclavicle -1.25887e-014 9.93923e-017
lhumerus -30.7482 18.3245 82.4337
lradius 19.7044
lwrist -28.2147
lhand -9.76723 8.3244
lfingers 7.12502
lthumb 16.2078 37.6669
rfemur -32.144 -3.61366 19.9456
rtibia 27.0959
rfoot -3.35424 9.03217
rtoes 15.4462
lfemur 2.77721 -0.184447 -20.2971
ltibia 6.75351
lfoot -2.1501 -18.6105
ltoes 7.55466
313
root 17.2807 16.2326 6.79355 194.708 86.5159 185.159
lowerback -13.0304 -2.76404 -3.67471
upperback 0.552237 -3.18537 1.15534
thorax 8.18873 -1.7199 2.67019
lowerneck -1.4206 -3.09404 -4.93751
upperneck -4.34518 -3.59251 12.7215
head -0.697301 -1.79785 4.6211
rclavicle 8.60054e-015 2.04251e-014
rhumerus -44.7819 -28.6354 -64.3025
rradius 24.4082
rwrist 37.3222
rhand 1.01728 -4.23883
rfingers 7.12502
rthumb 26.5644 -32.3959
lclavicle 8.60054e-015 2.04251e-014
lhumerus -31.3712 19.6982 81.6985
lradius 18.8853
lwrist -29.8725
lhand -9.11893 7.93386
lfingers 7.12502
lthumb 16.832 37.2243
rfemur -31.8997 -4.04143 20.1161
rtibia 27.4326
rfoot -3.82586 9.47844
rtoes 14.8395
lfemur 3.59203 -0.191351 -20.2584
ltibia 6.01913
lfoot -1.56779 -18.3478
ltoes 6.93045
314
root 17.3975 16.2456 6.81897 195.568 86.4306 185.98
lowerback -12.9327 -2.8748 -3.6499
upperback 0.578351 -3.34778 1.23607
thorax 8.17814 -1.80038 2.71193
lowerneck -1.47514 -3.19945 -4.68711
upperneck -4.90529 -3.65987 12.9206
head -0.845312 -1.84454 4.6459
rclavicle -1.52008e-014 -6.70898e-016
rhumerus -44.0651 -27.826 -65.2333
rradius 24.9969
rwrist 36.2122
rhand 0.612452 -4.4066
rfingers 7.12502
rthumb 26.1769 -32.6218
lclavicle -1.52008e-014 -6.70898e-016
lhumerus -32.0009 21.5068 80.7896
lradius 18.0233
lwrist -32.3366
lhand -8.44845 7.62835
lfingers 7.12502
lthumb 17.4773 36.8627
rfemur -31.6257 -4.16984 20.34
rtibia 27.6917
rfoot -4.25307 9.50085
rtoes 15.3029
lfemur 4.39917 -0.268713 -19.9963
ltibia 5.1824
lfoot -0.848988 -18.1986
ltoes 5.76639
315
root 17.5058 16.2624 6.84529 197.757 86.3266 187.961
lowerback -12.8895 -2.98316 -3.66063
upperback 0.517378 -3.50641 1.41956
thorax 8.11367 -1.88018 2.88441
lowerneck -1.5369 -3.27191 -4.41065
upperneck -5.38262 -3.69773 12.956
head -0.9755 -1.8753 4.61582
rclavicle 1.87005e-014 -6.79906e-015
rhumerus -43.4609 -27.1074 -65.9673
rradius 25.7956
rwrist 35.2579
rhand 0.340798 -4.63523
rfingers 7.12502
rthumb 25.9168 -32.8887
lclavicle 1.87005e-014 -6.79906e-015
lhumerus -32.5893 23.6823 79.7169
lradius 16.9669
lwrist -35.5831
lhand -8.2508 7.32706
lfingers 7.12502
lthumb 17.6675 36.5444
rfemur -31.5427 -4.39036 20.6903
rtibia 27.9048
rfoot -4.51285 9.66778
rtoes 16.3009
lfemur 5.00907 -0.343386 -19.6068
ltibia 4.2712
lfoot 0.169544 -17.9723
ltoes 5.913
